<?xml version="1.0" encoding="UTF-8" standalone="no"?>
<!DOCTYPE svg PUBLIC "-//W3C//DTD SVG 1.1//EN" "http://www.w3.org/Graphics/SVG/1.1/DTD/svg11.dtd">
<svg width="100%" height="100%" viewBox="0 0 268 80" version="1.1" xmlns="http://www.w3.org/2000/svg" xmlns:xlink="http://www.w3.org/1999/xlink" xml:space="preserve" xmlns:serif="http://www.serif.com/" style="fill-rule:evenodd;clip-rule:evenodd;stroke-linejoin:round;stroke-miterlimit:2;">
    <g id="ArtBoard1" transform="matrix(0.793356,0,0,0.713334,-54.3291,-63.4196)">
        <rect x="68.48" y="88.906" width="336.775" height="110.811" style="fill:none;"/>
        <g id="SvgjsG1013" transform="matrix(1.26047,0,0,1.40187,178.837,125.62)">
            <path id="SvgjsPath1014" d="M12.04,-0C15.19,-0 17.797,0.828 19.862,2.485C21.927,4.142 23.263,6.382 23.87,9.205L17.535,9.205C17.068,8.062 16.351,7.163 15.382,6.51C14.414,5.857 13.265,5.53 11.935,5.53C10.185,5.53 8.773,6.172 7.7,7.455C6.627,8.738 6.09,10.453 6.09,12.6C6.09,14.747 6.627,16.456 7.7,17.727C8.773,18.999 10.185,19.635 11.935,19.635C13.265,19.635 14.414,19.308 15.382,18.655C16.351,18.002 17.068,17.115 17.535,15.995L23.87,15.995C23.263,18.795 21.927,21.029 19.862,22.697C17.797,24.366 15.19,25.2 12.04,25.2C9.637,25.2 7.525,24.669 5.705,23.607C3.885,22.546 2.479,21.058 1.487,19.145C0.496,17.232 -0,15.05 -0,12.6C-0,10.15 0.496,7.968 1.487,6.055C2.479,4.142 3.885,2.654 5.705,1.592C7.525,0.531 9.637,-0 12.04,-0ZM36.365,5.215C38.302,5.215 40.034,5.617 41.562,6.422C43.091,7.227 44.292,8.388 45.167,9.905C46.042,11.422 46.48,13.195 46.48,15.225C46.48,17.255 46.042,19.028 45.167,20.545C44.292,22.062 43.091,23.222 41.562,24.027C40.034,24.832 38.302,25.235 36.365,25.235C34.428,25.235 32.69,24.832 31.15,24.027C29.61,23.222 28.402,22.062 27.527,20.545C26.652,19.028 26.215,17.255 26.215,15.225C26.215,13.195 26.652,11.422 27.527,9.905C28.402,8.388 29.61,7.227 31.15,6.422C32.69,5.617 34.428,5.215 36.365,5.215ZM36.365,10.395C35.222,10.395 34.259,10.809 33.477,11.637C32.696,12.466 32.305,13.662 32.305,15.225C32.305,16.788 32.696,17.978 33.477,18.795C34.259,19.612 35.222,20.02 36.365,20.02C37.508,20.02 38.465,19.612 39.235,18.795C40.005,17.978 40.39,16.788 40.39,15.225C40.39,13.662 40.005,12.466 39.235,11.637C38.465,10.809 37.508,10.395 36.365,10.395ZM61.985,5.25C64.225,5.25 66.004,5.997 67.322,7.49C68.641,8.983 69.3,11.037 69.3,13.65L69.3,24.99L63.315,24.99L63.315,14.35C63.315,13.043 62.971,12.022 62.282,11.287C61.594,10.552 60.678,10.185 59.535,10.185C58.322,10.185 57.359,10.57 56.647,11.34C55.936,12.11 55.58,13.207 55.58,14.63L55.58,24.99L49.595,24.99L49.595,5.46L55.58,5.46L55.58,9.03C56.14,7.863 56.974,6.942 58.082,6.265C59.191,5.588 60.492,5.25 61.985,5.25ZM82.425,19.845L84.315,19.845L84.315,24.99L81.62,24.99C79.333,24.99 77.554,24.424 76.282,23.292C75.011,22.161 74.375,20.288 74.375,17.675L74.375,10.5L71.75,10.5L71.75,5.46L74.375,5.46L74.375,0.665L80.36,0.665L80.36,5.46L84.28,5.46L84.28,10.5L80.36,10.5L80.36,17.78C80.36,18.55 80.517,19.087 80.832,19.39C81.147,19.693 81.678,19.845 82.425,19.845ZM106.225,14.7C106.225,15.19 106.167,15.727 106.05,16.31L92.505,16.31C92.575,17.78 92.948,18.836 93.625,19.477C94.302,20.119 95.165,20.44 96.215,20.44C97.102,20.44 97.837,20.218 98.42,19.775C99.003,19.332 99.388,18.76 99.575,18.06L105.91,18.06C105.653,19.437 105.093,20.667 104.23,21.752C103.367,22.837 102.27,23.689 100.94,24.307C99.61,24.926 98.128,25.235 96.495,25.235C94.582,25.235 92.884,24.832 91.402,24.027C89.921,23.222 88.76,22.062 87.92,20.545C87.08,19.028 86.66,17.255 86.66,15.225C86.66,13.172 87.074,11.392 87.902,9.887C88.731,8.382 89.892,7.227 91.385,6.422C92.878,5.617 94.582,5.215 96.495,5.215C98.432,5.215 100.135,5.612 101.605,6.405C103.075,7.198 104.212,8.312 105.017,9.747C105.822,11.182 106.225,12.833 106.225,14.7ZM100.17,13.79C100.193,12.507 99.849,11.544 99.137,10.902C98.426,10.261 97.545,9.94 96.495,9.94C95.398,9.94 94.488,10.267 93.765,10.92C93.042,11.573 92.633,12.53 92.54,13.79L100.17,13.79ZM121.73,5.25C123.97,5.25 125.749,5.997 127.067,7.49C128.386,8.983 129.045,11.037 129.045,13.65L129.045,24.99L123.06,24.99L123.06,14.35C123.06,13.043 122.716,12.022 122.027,11.287C121.339,10.552 120.423,10.185 119.28,10.185C118.067,10.185 117.104,10.57 116.392,11.34C115.681,12.11 115.325,13.207 115.325,14.63L115.325,24.99L109.34,24.99L109.34,5.46L115.325,5.46L115.325,9.03C115.885,7.863 116.719,6.942 117.827,6.265C118.936,5.588 120.237,5.25 121.73,5.25ZM142.17,19.845L144.06,19.845L144.06,24.99L141.365,24.99C139.078,24.99 137.299,24.424 136.027,23.292C134.756,22.161 134.12,20.288 134.12,17.675L134.12,10.5L131.495,10.5L131.495,5.46L134.12,5.46L134.12,0.665L140.105,0.665L140.105,5.46L144.025,5.46L144.025,10.5L140.105,10.5L140.105,17.78C140.105,18.55 140.262,19.087 140.577,19.39C140.892,19.693 141.423,19.845 142.17,19.845ZM147.42,0.245L153.405,0.245L153.405,24.99L147.42,24.99L147.42,0.245ZM169.925,5.25C172.165,5.25 173.944,5.997 175.262,7.49C176.581,8.983 177.24,11.037 177.24,13.65L177.24,24.99L171.255,24.99L171.255,14.35C171.255,13.043 170.911,12.022 170.222,11.287C169.534,10.552 168.618,10.185 167.475,10.185C166.262,10.185 165.299,10.57 164.587,11.34C163.876,12.11 163.52,13.207 163.52,14.63L163.52,24.99L157.535,24.99L157.535,5.46L163.52,5.46L163.52,9.03C164.08,7.863 164.914,6.942 166.022,6.265C167.131,5.588 168.432,5.25 169.925,5.25Z" style="fill:rgb(82,64,62);fill-rule:nonzero;"/>
        </g>
        <g id="SvgjsG1015" transform="matrix(1.26047,0,0,1.40187,14.976,28.355)">
            <path id="color_1" d="M108.58,77.67L108.58,63.1L77.08,44.91L45.57,63.1L45.57,77.67L77.08,95.85L108.58,77.67ZM50.46,65.92L77.08,50.55L103.7,65.92L103.7,74.85L77.08,90.21L50.46,74.85L50.46,65.92ZM108.58,84.13L108.58,89.77L77.08,108L45.6,89.78L45.6,84.14L77.08,102.32L108.58,84.13ZM77.08,114.45L108.58,96.26L108.58,101.9L77.08,120.09L45.6,101.91L45.6,96.27L77.08,114.45Z" style="fill:rgb(82,64,62);fill-rule:nonzero;"/>
        </g>
    </g>
</svg>
